<mxfile host="app.diagrams.net" modified="2020-12-02T21:07:43.235Z" agent="5.0 (Macintosh; Intel Mac OS X 10_15_4) AppleWebKit/537.36 (KHTML, like Gecko) Chrome/87.0.4280.67 Safari/537.36" etag="qs1YsiRIv4c0ub1Eg4vj" version="13.10.6" type="github">
  <diagram id="aSo_jryYAAWTpokRjIut" name="Page-1">
    <mxGraphModel dx="3144" dy="2184" grid="1" gridSize="10" guides="1" tooltips="1" connect="1" arrows="1" fold="1" page="1" pageScale="1" pageWidth="1200" pageHeight="1900" math="0" shadow="0">
      <root>
        <mxCell id="0" />
        <mxCell id="1" parent="0" />
        <mxCell id="0P2SKMLdg5sXrYt_FusZ-24" style="edgeStyle=orthogonalEdgeStyle;rounded=0;orthogonalLoop=1;jettySize=auto;html=1;exitX=0.5;exitY=1;exitDx=0;exitDy=0;entryX=0.5;entryY=0;entryDx=0;entryDy=0;" parent="1" source="0P2SKMLdg5sXrYt_FusZ-1" target="0P2SKMLdg5sXrYt_FusZ-6" edge="1">
          <mxGeometry relative="1" as="geometry" />
        </mxCell>
        <mxCell id="0P2SKMLdg5sXrYt_FusZ-1" value="Start" style="rounded=1;whiteSpace=wrap;html=1;arcSize=50;strokeColor=#6E6E6E;" parent="1" vertex="1">
          <mxGeometry x="905" y="160" width="120" height="60" as="geometry" />
        </mxCell>
        <mxCell id="0P2SKMLdg5sXrYt_FusZ-25" style="edgeStyle=orthogonalEdgeStyle;rounded=0;orthogonalLoop=1;jettySize=auto;html=1;exitX=0.5;exitY=1;exitDx=0;exitDy=0;entryX=0.5;entryY=0;entryDx=0;entryDy=0;" parent="1" source="0P2SKMLdg5sXrYt_FusZ-6" target="0P2SKMLdg5sXrYt_FusZ-9" edge="1">
          <mxGeometry relative="1" as="geometry" />
        </mxCell>
        <mxCell id="0P2SKMLdg5sXrYt_FusZ-26" style="edgeStyle=orthogonalEdgeStyle;rounded=0;orthogonalLoop=1;jettySize=auto;html=1;exitX=0;exitY=0.5;exitDx=0;exitDy=0;entryX=1;entryY=0.5;entryDx=0;entryDy=0;" parent="1" source="0P2SKMLdg5sXrYt_FusZ-6" target="0P2SKMLdg5sXrYt_FusZ-18" edge="1">
          <mxGeometry relative="1" as="geometry" />
        </mxCell>
        <mxCell id="0P2SKMLdg5sXrYt_FusZ-6" value="Returning&lt;br&gt;User?" style="rhombus;whiteSpace=wrap;html=1;strokeColor=#6E6E6E;" parent="1" vertex="1">
          <mxGeometry x="890" y="290" width="150" height="100" as="geometry" />
        </mxCell>
        <mxCell id="0P2SKMLdg5sXrYt_FusZ-7" value="&lt;b&gt;ChooseTypeIntent&lt;/b&gt;" style="text;html=1;align=center;verticalAlign=middle;resizable=0;points=[];autosize=1;" parent="1" vertex="1">
          <mxGeometry x="905" y="120" width="120" height="20" as="geometry" />
        </mxCell>
        <mxCell id="0P2SKMLdg5sXrYt_FusZ-29" style="edgeStyle=orthogonalEdgeStyle;rounded=0;orthogonalLoop=1;jettySize=auto;html=1;exitX=0;exitY=0.5;exitDx=0;exitDy=0;entryX=1;entryY=0.5;entryDx=0;entryDy=0;" parent="1" source="0P2SKMLdg5sXrYt_FusZ-8" target="0P2SKMLdg5sXrYt_FusZ-22" edge="1">
          <mxGeometry relative="1" as="geometry" />
        </mxCell>
        <mxCell id="0P2SKMLdg5sXrYt_FusZ-41" style="edgeStyle=orthogonalEdgeStyle;rounded=0;orthogonalLoop=1;jettySize=auto;html=1;exitX=0.5;exitY=1;exitDx=0;exitDy=0;entryX=0.5;entryY=0;entryDx=0;entryDy=0;" parent="1" source="0P2SKMLdg5sXrYt_FusZ-8" target="0P2SKMLdg5sXrYt_FusZ-12" edge="1">
          <mxGeometry relative="1" as="geometry" />
        </mxCell>
        <mxCell id="0P2SKMLdg5sXrYt_FusZ-8" value="Type of meal given?" style="rhombus;whiteSpace=wrap;html=1;strokeColor=#6E6E6E;" parent="1" vertex="1">
          <mxGeometry x="890" y="610" width="150" height="100" as="geometry" />
        </mxCell>
        <mxCell id="0P2SKMLdg5sXrYt_FusZ-28" style="edgeStyle=orthogonalEdgeStyle;rounded=0;orthogonalLoop=1;jettySize=auto;html=1;" parent="1" source="0P2SKMLdg5sXrYt_FusZ-9" target="0P2SKMLdg5sXrYt_FusZ-8" edge="1">
          <mxGeometry relative="1" as="geometry" />
        </mxCell>
        <mxCell id="0P2SKMLdg5sXrYt_FusZ-9" value="Personal Greeting" style="shape=document;whiteSpace=wrap;html=1;boundedLbl=1;strokeColor=#6E6E6E;" parent="1" vertex="1">
          <mxGeometry x="905" y="460" width="120" height="80" as="geometry" />
        </mxCell>
        <mxCell id="0P2SKMLdg5sXrYt_FusZ-47" style="edgeStyle=elbowEdgeStyle;rounded=0;orthogonalLoop=1;jettySize=auto;html=1;entryX=0.5;entryY=0;entryDx=0;entryDy=0;" parent="1" source="0P2SKMLdg5sXrYt_FusZ-12" target="0P2SKMLdg5sXrYt_FusZ-13" edge="1">
          <mxGeometry relative="1" as="geometry">
            <Array as="points">
              <mxPoint x="965" y="930" />
            </Array>
          </mxGeometry>
        </mxCell>
        <mxCell id="0P2SKMLdg5sXrYt_FusZ-12" value="Give first (max. 3) recipe suggestions&amp;nbsp;" style="shape=document;whiteSpace=wrap;html=1;boundedLbl=1;strokeColor=#6E6E6E;" parent="1" vertex="1">
          <mxGeometry x="905" y="790" width="120" height="80" as="geometry" />
        </mxCell>
        <mxCell id="0P2SKMLdg5sXrYt_FusZ-48" style="edgeStyle=elbowEdgeStyle;rounded=0;orthogonalLoop=1;jettySize=auto;html=1;exitX=0.5;exitY=1;exitDx=0;exitDy=0;entryX=0.5;entryY=0;entryDx=0;entryDy=0;" parent="1" source="0P2SKMLdg5sXrYt_FusZ-13" target="0P2SKMLdg5sXrYt_FusZ-14" edge="1">
          <mxGeometry relative="1" as="geometry" />
        </mxCell>
        <mxCell id="0P2SKMLdg5sXrYt_FusZ-13" value="Prompt User to choose recipe" style="rounded=0;whiteSpace=wrap;html=1;strokeColor=#6E6E6E;" parent="1" vertex="1">
          <mxGeometry x="905" y="950" width="120" height="60" as="geometry" />
        </mxCell>
        <mxCell id="0P2SKMLdg5sXrYt_FusZ-49" style="edgeStyle=elbowEdgeStyle;rounded=0;orthogonalLoop=1;jettySize=auto;html=1;exitX=0.5;exitY=1;exitDx=0;exitDy=0;entryX=0.5;entryY=0;entryDx=0;entryDy=0;" parent="1" source="0P2SKMLdg5sXrYt_FusZ-14" target="0P2SKMLdg5sXrYt_FusZ-16" edge="1">
          <mxGeometry relative="1" as="geometry" />
        </mxCell>
        <mxCell id="0P2SKMLdg5sXrYt_FusZ-51" style="edgeStyle=elbowEdgeStyle;rounded=0;orthogonalLoop=1;jettySize=auto;html=1;exitX=0;exitY=0.5;exitDx=0;exitDy=0;entryX=1;entryY=0.5;entryDx=0;entryDy=0;" parent="1" source="0P2SKMLdg5sXrYt_FusZ-14" edge="1">
          <mxGeometry relative="1" as="geometry">
            <mxPoint x="805" y="1140" as="targetPoint" />
          </mxGeometry>
        </mxCell>
        <mxCell id="0P2SKMLdg5sXrYt_FusZ-14" value="Recipe selected?" style="rhombus;whiteSpace=wrap;html=1;strokeColor=#6E6E6E;" parent="1" vertex="1">
          <mxGeometry x="890" y="1090" width="150" height="100" as="geometry" />
        </mxCell>
        <mxCell id="0P2SKMLdg5sXrYt_FusZ-15" value="InstructionsIntent" style="shape=process;whiteSpace=wrap;html=1;backgroundOutline=1;strokeColor=#6E6E6E;" parent="1" vertex="1">
          <mxGeometry x="895" y="1540" width="140" height="60" as="geometry" />
        </mxCell>
        <mxCell id="0P2SKMLdg5sXrYt_FusZ-74" style="edgeStyle=elbowEdgeStyle;rounded=0;orthogonalLoop=1;jettySize=auto;html=1;exitX=0.5;exitY=1;exitDx=0;exitDy=0;entryX=0.5;entryY=0;entryDx=0;entryDy=0;" parent="1" target="0P2SKMLdg5sXrYt_FusZ-17" edge="1">
          <mxGeometry relative="1" as="geometry">
            <mxPoint x="965" y="1290" as="sourcePoint" />
          </mxGeometry>
        </mxCell>
        <mxCell id="0P2SKMLdg5sXrYt_FusZ-16" value="Prompt User to start recipe" style="rounded=0;whiteSpace=wrap;html=1;strokeColor=#6E6E6E;" parent="1" vertex="1">
          <mxGeometry x="905" y="1270" width="120" height="60" as="geometry" />
        </mxCell>
        <mxCell id="0P2SKMLdg5sXrYt_FusZ-76" style="edgeStyle=elbowEdgeStyle;rounded=0;orthogonalLoop=1;jettySize=auto;html=1;exitX=0.5;exitY=1;exitDx=0;exitDy=0;entryX=0.5;entryY=0;entryDx=0;entryDy=0;" parent="1" source="0P2SKMLdg5sXrYt_FusZ-17" target="0P2SKMLdg5sXrYt_FusZ-15" edge="1">
          <mxGeometry relative="1" as="geometry" />
        </mxCell>
        <mxCell id="0P2SKMLdg5sXrYt_FusZ-100" style="edgeStyle=elbowEdgeStyle;rounded=0;orthogonalLoop=1;jettySize=auto;html=1;exitX=0;exitY=0.5;exitDx=0;exitDy=0;" parent="1" source="0P2SKMLdg5sXrYt_FusZ-17" target="0P2SKMLdg5sXrYt_FusZ-79" edge="1">
          <mxGeometry relative="1" as="geometry" />
        </mxCell>
        <mxCell id="0P2SKMLdg5sXrYt_FusZ-17" value="Start recipe?" style="rhombus;whiteSpace=wrap;html=1;strokeColor=#6E6E6E;" parent="1" vertex="1">
          <mxGeometry x="890" y="1370" width="150" height="100" as="geometry" />
        </mxCell>
        <mxCell id="0P2SKMLdg5sXrYt_FusZ-35" style="edgeStyle=orthogonalEdgeStyle;rounded=0;orthogonalLoop=1;jettySize=auto;html=1;" parent="1" source="0P2SKMLdg5sXrYt_FusZ-18" edge="1">
          <mxGeometry relative="1" as="geometry">
            <mxPoint x="960" y="560" as="targetPoint" />
            <mxPoint x="730" y="410" as="sourcePoint" />
            <Array as="points">
              <mxPoint x="730" y="560" />
              <mxPoint x="960" y="560" />
            </Array>
          </mxGeometry>
        </mxCell>
        <mxCell id="0P2SKMLdg5sXrYt_FusZ-18" value="Welcome and brief skill explanation" style="shape=document;whiteSpace=wrap;html=1;boundedLbl=1;strokeColor=#6E6E6E;" parent="1" vertex="1">
          <mxGeometry x="670" y="300" width="120" height="80" as="geometry" />
        </mxCell>
        <mxCell id="0P2SKMLdg5sXrYt_FusZ-44" style="edgeStyle=elbowEdgeStyle;rounded=0;orthogonalLoop=1;jettySize=auto;html=1;exitX=0.5;exitY=0;exitDx=0;exitDy=0;" parent="1" source="0P2SKMLdg5sXrYt_FusZ-21" edge="1">
          <mxGeometry relative="1" as="geometry">
            <mxPoint x="960" y="580" as="targetPoint" />
            <Array as="points">
              <mxPoint x="510" y="610" />
            </Array>
          </mxGeometry>
        </mxCell>
        <mxCell id="0P2SKMLdg5sXrYt_FusZ-21" value="Prompt for user request" style="rounded=0;whiteSpace=wrap;html=1;strokeColor=#6E6E6E;" parent="1" vertex="1">
          <mxGeometry x="450" y="630" width="120" height="60" as="geometry" />
        </mxCell>
        <mxCell id="0P2SKMLdg5sXrYt_FusZ-30" style="edgeStyle=orthogonalEdgeStyle;rounded=0;orthogonalLoop=1;jettySize=auto;html=1;exitX=0;exitY=0.5;exitDx=0;exitDy=0;entryX=1;entryY=0.5;entryDx=0;entryDy=0;" parent="1" source="0P2SKMLdg5sXrYt_FusZ-22" target="0P2SKMLdg5sXrYt_FusZ-21" edge="1">
          <mxGeometry relative="1" as="geometry" />
        </mxCell>
        <mxCell id="0P2SKMLdg5sXrYt_FusZ-43" style="edgeStyle=elbowEdgeStyle;rounded=0;orthogonalLoop=1;jettySize=auto;html=1;exitX=0.5;exitY=1;exitDx=0;exitDy=0;entryX=0;entryY=0.5;entryDx=0;entryDy=0;" parent="1" source="0P2SKMLdg5sXrYt_FusZ-22" target="0P2SKMLdg5sXrYt_FusZ-13" edge="1">
          <mxGeometry relative="1" as="geometry">
            <mxPoint x="900" y="970" as="targetPoint" />
            <Array as="points">
              <mxPoint x="730" y="850" />
              <mxPoint x="730" y="760" />
            </Array>
          </mxGeometry>
        </mxCell>
        <mxCell id="0P2SKMLdg5sXrYt_FusZ-22" value="Specific recipe &lt;br&gt;name given?" style="rhombus;whiteSpace=wrap;html=1;strokeColor=#6E6E6E;" parent="1" vertex="1">
          <mxGeometry x="655" y="610" width="150" height="100" as="geometry" />
        </mxCell>
        <mxCell id="0P2SKMLdg5sXrYt_FusZ-36" value="Yes" style="text;html=1;align=center;verticalAlign=middle;resizable=0;points=[];autosize=1;fillColor=#ffffff;" parent="1" vertex="1">
          <mxGeometry x="945" y="410" width="40" height="20" as="geometry" />
        </mxCell>
        <mxCell id="0P2SKMLdg5sXrYt_FusZ-37" value="No" style="text;html=1;align=center;verticalAlign=middle;resizable=0;points=[];autosize=1;fillColor=#ffffff;" parent="1" vertex="1">
          <mxGeometry x="830" y="330" width="30" height="20" as="geometry" />
        </mxCell>
        <mxCell id="0P2SKMLdg5sXrYt_FusZ-38" value="No" style="text;html=1;align=center;verticalAlign=middle;resizable=0;points=[];autosize=1;fillColor=#ffffff;" parent="1" vertex="1">
          <mxGeometry x="835" y="650" width="30" height="20" as="geometry" />
        </mxCell>
        <mxCell id="0P2SKMLdg5sXrYt_FusZ-40" value="No" style="text;html=1;align=center;verticalAlign=middle;resizable=0;points=[];autosize=1;fillColor=#ffffff;" parent="1" vertex="1">
          <mxGeometry x="600" y="650" width="30" height="20" as="geometry" />
        </mxCell>
        <mxCell id="0P2SKMLdg5sXrYt_FusZ-45" value="Yes" style="text;html=1;align=center;verticalAlign=middle;resizable=0;points=[];autosize=1;fillColor=#ffffff;" parent="1" vertex="1">
          <mxGeometry x="710" y="810" width="40" height="20" as="geometry" />
        </mxCell>
        <mxCell id="0P2SKMLdg5sXrYt_FusZ-46" value="Yes" style="text;html=1;align=center;verticalAlign=middle;resizable=0;points=[];autosize=1;fillColor=#ffffff;" parent="1" vertex="1">
          <mxGeometry x="945" y="730" width="40" height="20" as="geometry" />
        </mxCell>
        <mxCell id="0P2SKMLdg5sXrYt_FusZ-50" value="Yes" style="text;html=1;align=center;verticalAlign=middle;resizable=0;points=[];autosize=1;fillColor=#ffffff;" parent="1" vertex="1">
          <mxGeometry x="945" y="1220" width="40" height="20" as="geometry" />
        </mxCell>
        <mxCell id="0P2SKMLdg5sXrYt_FusZ-52" value="No" style="text;html=1;align=center;verticalAlign=middle;resizable=0;points=[];autosize=1;fillColor=#ffffff;" parent="1" vertex="1">
          <mxGeometry x="840" y="1130" width="30" height="20" as="geometry" />
        </mxCell>
        <mxCell id="0P2SKMLdg5sXrYt_FusZ-57" style="edgeStyle=elbowEdgeStyle;rounded=0;orthogonalLoop=1;jettySize=auto;html=1;exitX=0.5;exitY=0;exitDx=0;exitDy=0;entryX=0;entryY=0.75;entryDx=0;entryDy=0;" parent="1" source="0P2SKMLdg5sXrYt_FusZ-54" target="0P2SKMLdg5sXrYt_FusZ-13" edge="1">
          <mxGeometry relative="1" as="geometry">
            <mxPoint x="960" y="1060" as="targetPoint" />
            <Array as="points">
              <mxPoint x="510" y="1050" />
              <mxPoint x="740" y="1010" />
              <mxPoint x="510" y="1080" />
            </Array>
          </mxGeometry>
        </mxCell>
        <mxCell id="0P2SKMLdg5sXrYt_FusZ-54" value="Give next recipe suggestion" style="shape=document;whiteSpace=wrap;html=1;boundedLbl=1;strokeColor=#6E6E6E;" parent="1" vertex="1">
          <mxGeometry x="450" y="1100" width="120" height="80" as="geometry" />
        </mxCell>
        <mxCell id="0P2SKMLdg5sXrYt_FusZ-58" value="Max of 3&lt;br&gt;recipe&lt;br&gt;rejections" style="text;html=1;align=center;verticalAlign=middle;resizable=0;points=[];autosize=1;" parent="1" vertex="1">
          <mxGeometry x="355" y="1110" width="70" height="50" as="geometry" />
        </mxCell>
        <mxCell id="0P2SKMLdg5sXrYt_FusZ-59" value="" style="strokeWidth=2;html=1;shape=mxgraph.flowchart.annotation_1;align=left;pointerEvents=1;fillColor=#ffffff;rotation=-180;" parent="1" vertex="1">
          <mxGeometry x="430" y="1100" width="10" height="70" as="geometry" />
        </mxCell>
        <mxCell id="0P2SKMLdg5sXrYt_FusZ-61" style="edgeStyle=elbowEdgeStyle;rounded=0;orthogonalLoop=1;jettySize=auto;html=1;exitX=0;exitY=0.5;exitDx=0;exitDy=0;entryX=1;entryY=0.5;entryDx=0;entryDy=0;" parent="1" source="0P2SKMLdg5sXrYt_FusZ-60" target="0P2SKMLdg5sXrYt_FusZ-54" edge="1">
          <mxGeometry relative="1" as="geometry" />
        </mxCell>
        <mxCell id="0P2SKMLdg5sXrYt_FusZ-66" style="edgeStyle=elbowEdgeStyle;rounded=0;orthogonalLoop=1;jettySize=auto;html=1;exitX=0.5;exitY=1;exitDx=0;exitDy=0;" parent="1" source="0P2SKMLdg5sXrYt_FusZ-60" edge="1">
          <mxGeometry relative="1" as="geometry">
            <mxPoint x="310" y="1290" as="targetPoint" />
            <Array as="points">
              <mxPoint x="730" y="1250" />
              <mxPoint x="450" y="1280" />
              <mxPoint x="730" y="1200" />
              <mxPoint x="420" y="1220" />
              <mxPoint x="310" y="1220" />
            </Array>
          </mxGeometry>
        </mxCell>
        <mxCell id="0P2SKMLdg5sXrYt_FusZ-60" value="Max number of &lt;br&gt;rejected recipes &lt;br&gt;reached?" style="rhombus;whiteSpace=wrap;html=1;strokeColor=#6E6E6E;" parent="1" vertex="1">
          <mxGeometry x="655" y="1090" width="150" height="100" as="geometry" />
        </mxCell>
        <mxCell id="0P2SKMLdg5sXrYt_FusZ-62" value="No" style="text;html=1;align=center;verticalAlign=middle;resizable=0;points=[];autosize=1;fillColor=#ffffff;" parent="1" vertex="1">
          <mxGeometry x="600" y="1130" width="30" height="20" as="geometry" />
        </mxCell>
        <mxCell id="0P2SKMLdg5sXrYt_FusZ-70" style="edgeStyle=elbowEdgeStyle;rounded=0;orthogonalLoop=1;jettySize=auto;html=1;entryX=0;entryY=0.5;entryDx=0;entryDy=0;" parent="1" source="0P2SKMLdg5sXrYt_FusZ-69" target="0P2SKMLdg5sXrYt_FusZ-21" edge="1">
          <mxGeometry relative="1" as="geometry">
            <Array as="points">
              <mxPoint x="390" y="660" />
              <mxPoint x="350" y="660" />
            </Array>
          </mxGeometry>
        </mxCell>
        <mxCell id="0P2SKMLdg5sXrYt_FusZ-69" value="" style="line;strokeWidth=1;direction=south;html=1;perimeter=backbonePerimeter;points=[];outlineConnect=0;fillColor=#ffffff;" parent="1" vertex="1">
          <mxGeometry x="306" y="660" width="10" height="630" as="geometry" />
        </mxCell>
        <mxCell id="0P2SKMLdg5sXrYt_FusZ-75" value="Yes" style="text;html=1;align=center;verticalAlign=middle;resizable=0;points=[];autosize=1;fillColor=#ffffff;" parent="1" vertex="1">
          <mxGeometry x="945" y="1490" width="40" height="20" as="geometry" />
        </mxCell>
        <mxCell id="0P2SKMLdg5sXrYt_FusZ-99" style="edgeStyle=elbowEdgeStyle;rounded=0;orthogonalLoop=1;jettySize=auto;html=1;exitX=0;exitY=0.5;exitDx=0;exitDy=0;entryX=1;entryY=0.5;entryDx=0;entryDy=0;" parent="1" target="0P2SKMLdg5sXrYt_FusZ-85" edge="1">
          <mxGeometry relative="1" as="geometry">
            <mxPoint x="670" y="1420" as="sourcePoint" />
          </mxGeometry>
        </mxCell>
        <mxCell id="0P2SKMLdg5sXrYt_FusZ-106" style="edgeStyle=elbowEdgeStyle;rounded=0;orthogonalLoop=1;jettySize=auto;html=1;exitX=0.5;exitY=1;exitDx=0;exitDy=0;" parent="1" source="0P2SKMLdg5sXrYt_FusZ-79" target="0P2SKMLdg5sXrYt_FusZ-104" edge="1">
          <mxGeometry relative="1" as="geometry" />
        </mxCell>
        <mxCell id="0P2SKMLdg5sXrYt_FusZ-79" value="Save recipe?" style="rhombus;whiteSpace=wrap;html=1;strokeColor=#6E6E6E;" parent="1" vertex="1">
          <mxGeometry x="655" y="1370" width="150" height="100" as="geometry" />
        </mxCell>
        <mxCell id="0P2SKMLdg5sXrYt_FusZ-80" value="Confirm recipe is saved for later" style="shape=document;whiteSpace=wrap;html=1;boundedLbl=1;strokeColor=#6E6E6E;" parent="1" vertex="1">
          <mxGeometry x="670" y="1670" width="120" height="80" as="geometry" />
        </mxCell>
        <mxCell id="0P2SKMLdg5sXrYt_FusZ-82" value="Yes" style="text;html=1;align=center;verticalAlign=middle;resizable=0;points=[];autosize=1;fillColor=#ffffff;" parent="1" vertex="1">
          <mxGeometry x="710" y="1220" width="40" height="20" as="geometry" />
        </mxCell>
        <mxCell id="0P2SKMLdg5sXrYt_FusZ-108" style="edgeStyle=elbowEdgeStyle;rounded=0;orthogonalLoop=1;jettySize=auto;html=1;exitX=0;exitY=0.5;exitDx=0;exitDy=0;" parent="1" source="0P2SKMLdg5sXrYt_FusZ-85" target="0P2SKMLdg5sXrYt_FusZ-90" edge="1">
          <mxGeometry relative="1" as="geometry" />
        </mxCell>
        <mxCell id="0P2SKMLdg5sXrYt_FusZ-113" style="edgeStyle=elbowEdgeStyle;rounded=0;orthogonalLoop=1;jettySize=auto;html=1;exitX=0.5;exitY=1;exitDx=0;exitDy=0;" parent="1" source="0P2SKMLdg5sXrYt_FusZ-85" edge="1">
          <mxGeometry relative="1" as="geometry">
            <mxPoint x="510" y="1600" as="targetPoint" />
          </mxGeometry>
        </mxCell>
        <mxCell id="0P2SKMLdg5sXrYt_FusZ-85" value="Find new recipe?" style="rhombus;whiteSpace=wrap;html=1;strokeColor=#6E6E6E;" parent="1" vertex="1">
          <mxGeometry x="435" y="1370" width="150" height="100" as="geometry" />
        </mxCell>
        <mxCell id="0P2SKMLdg5sXrYt_FusZ-90" value="CancelIntent" style="shape=process;whiteSpace=wrap;html=1;backgroundOutline=1;strokeColor=#6E6E6E;" parent="1" vertex="1">
          <mxGeometry x="215" y="1390" width="140" height="60" as="geometry" />
        </mxCell>
        <mxCell id="0P2SKMLdg5sXrYt_FusZ-101" value="No" style="text;html=1;align=center;verticalAlign=middle;resizable=0;points=[];autosize=1;fillColor=#ffffff;" parent="1" vertex="1">
          <mxGeometry x="840" y="1410" width="30" height="20" as="geometry" />
        </mxCell>
        <mxCell id="0P2SKMLdg5sXrYt_FusZ-103" value="No" style="text;html=1;align=center;verticalAlign=middle;resizable=0;points=[];autosize=1;fillColor=#ffffff;" parent="1" vertex="1">
          <mxGeometry x="610" y="1410" width="30" height="20" as="geometry" />
        </mxCell>
        <mxCell id="0P2SKMLdg5sXrYt_FusZ-107" style="edgeStyle=elbowEdgeStyle;rounded=0;orthogonalLoop=1;jettySize=auto;html=1;exitX=0.5;exitY=1;exitDx=0;exitDy=0;" parent="1" source="0P2SKMLdg5sXrYt_FusZ-104" target="0P2SKMLdg5sXrYt_FusZ-80" edge="1">
          <mxGeometry relative="1" as="geometry" />
        </mxCell>
        <mxCell id="0P2SKMLdg5sXrYt_FusZ-104" value="Save recipe preference" style="shape=parallelogram;perimeter=parallelogramPerimeter;whiteSpace=wrap;html=1;fixedSize=1;strokeColor=#6E6E6E;strokeWidth=1;fillColor=#ffffff;" parent="1" vertex="1">
          <mxGeometry x="670" y="1540" width="120" height="60" as="geometry" />
        </mxCell>
        <mxCell id="0P2SKMLdg5sXrYt_FusZ-109" value="No" style="text;html=1;align=center;verticalAlign=middle;resizable=0;points=[];autosize=1;fillColor=#ffffff;" parent="1" vertex="1">
          <mxGeometry x="382" y="1410" width="30" height="20" as="geometry" />
        </mxCell>
        <mxCell id="0P2SKMLdg5sXrYt_FusZ-110" value="Yes" style="text;html=1;align=center;verticalAlign=middle;resizable=0;points=[];autosize=1;fillColor=#ffffff;" parent="1" vertex="1">
          <mxGeometry x="710" y="1490" width="40" height="20" as="geometry" />
        </mxCell>
        <mxCell id="0P2SKMLdg5sXrYt_FusZ-117" style="edgeStyle=elbowEdgeStyle;rounded=0;orthogonalLoop=1;jettySize=auto;html=1;exitX=0.5;exitY=1;exitDx=0;exitDy=0;entryX=0;entryY=0.75;entryDx=0;entryDy=0;" parent="1" target="0P2SKMLdg5sXrYt_FusZ-21" edge="1">
          <mxGeometry relative="1" as="geometry">
            <mxPoint x="510" y="1600" as="sourcePoint" />
            <Array as="points">
              <mxPoint x="160" y="950" />
            </Array>
          </mxGeometry>
        </mxCell>
        <mxCell id="0P2SKMLdg5sXrYt_FusZ-114" value="Yes" style="text;html=1;align=center;verticalAlign=middle;resizable=0;points=[];autosize=1;fillColor=#ffffff;" parent="1" vertex="1">
          <mxGeometry x="490" y="1510" width="40" height="20" as="geometry" />
        </mxCell>
      </root>
    </mxGraphModel>
  </diagram>
</mxfile>
